# xmcd CD database file
# Copyright (C) 1993-1998 Ti Kan
#
# Track frame offsets:
#	150
#	21998
#	41098
#	64093
#	88463
#	103320
#	114838
#	139720
#	158225
#	187508
#	213153
#	238958
#
# Disc length: 3459 seconds
#
# Revision: 1
# Processed by: cddbd v1.4b41PL1 Copyright (c) Steve Scherf et al.
# Submitted via: xmcd 1.4
#
DISCID=a50d810c
DTITLE=Eric Clapton - Journeyman
DYEAR=1900
DGENRE=
TTITLE0=Pretending
TTITLE1=Anything For Your Love
TTITLE2=Bad Love
TTITLE3=Running On Faith
TTITLE4=Hard Times
TTITLE5=Hound Dog
TTITLE6=No Alibis
TTITLE7=Run So Far
TTITLE8=Old Love
TTITLE9=Breaking Point
TTITLE10=Lead Me On
TTITLE11=
EXTD=
EXTT0=
EXTT1=
EXTT2=
EXTT3=
EXTT4=
EXTT5=
EXTT6=
EXTT7=
EXTT8=
EXTT9=
EXTT10=
EXTT11=
PLAYORDER=
